<svg xmlns="http://www.w3.org/2000/svg" xmlns:xlink="http://www.w3.org/1999/xlink" fill="none" version="1.1" width="187" height="48" viewBox="0 0 187 48"><defs><clipPath id="master_svg0_0_339"><rect x="0" y="0" width="187" height="48" rx="0"/></clipPath></defs><g clip-path="url(#master_svg0_0_339)"><g><path d="M57.5197,25.8184C57.9214,25.5385,58.1626,25.4187,58.4037,25.2588C60.2924,24.1396,62.181,22.9806,64.1099,21.9014C64.7127,21.5817,65.3556,21.3018,65.9985,21.1419C68.2891,20.5024,70.0571,21.5417,70.6599,23.8199C71.0618,25.3387,70.9412,26.8176,70.5795,28.2964C70.4991,28.6962,70.3786,29.0958,70.258,29.6954C70.6599,29.3757,70.901,29.2158,71.142,29.016C73.955,26.9775,76.7278,24.8991,79.5406,22.8606C80.6256,22.1013,81.8312,21.4617,82.9965,20.8223C84.0011,20.2626,84.644,20.5025,85.1262,21.5018C85.6084,22.4209,85.6486,23.4202,85.4076,24.4194C85.1664,25.3388,84.8852,26.2181,84.6038,27.0973C83.9208,29.2158,83.2777,31.3341,83.3581,33.6124C83.3984,34.292,83.5189,34.9713,83.76,35.5709C84.2824,36.8899,85.3673,37.4895,86.7336,37.1697C87.6176,36.9699,88.4615,36.6101,89.2251,36.1305C91.9978,34.3717,94.4088,32.2136,96.2171,29.4956C97.4627,27.657,98.5075,25.6985,99.6327,23.7799C99.9542,23.2603,100.195,22.7007,100.597,22.2211C101.361,21.1819,102.205,21.102,103.289,21.8214C103.41,21.9014,103.49,21.9813,103.651,22.1013C105.54,20.4225,107.67,19.5831,110.081,20.7822C112.331,21.9414,113.416,23.9398,113.496,26.6577C113.778,26.218,113.938,25.9383,114.139,25.6984C114.621,25.0189,115.345,24.6593,116.068,24.8991C116.872,25.1389,117.595,25.5786,117.675,26.4978C117.716,27.0973,117.595,27.7769,117.354,28.3764C116.992,29.2557,116.51,30.0951,116.028,30.9744C115.706,31.614,115.546,32.2934,115.626,33.0129C115.706,33.8123,116.108,34.172,116.912,34.092C117.274,34.0521,117.675,33.9321,118.037,33.8122C119.002,33.4125,119.886,32.853,120.609,32.0536C121.935,30.6147,123.221,29.1757,124.507,27.6969C125.592,26.4978,126.596,25.2189,127.722,24.0597C128.364,23.3802,129.128,22.8207,129.891,22.3011C130.334,21.9813,130.896,21.8214,131.418,21.7015C132.986,21.3818,134.312,22.341,134.392,23.9398C134.432,24.6194,134.312,25.3787,134.111,26.0183C133.749,27.2973,133.227,28.5762,132.785,29.8552C132.584,30.4949,132.302,31.1343,132.142,31.7738C131.74,33.5724,132.865,35.0114,134.754,35.0114C135.437,35.0114,136.2,34.8514,136.843,34.6116C138.692,33.9321,140.299,32.853,141.746,31.534C143.715,29.7354,145.202,27.617,146.608,25.1789C146.206,25.2989,145.965,25.3388,145.764,25.4187C144.8,25.8584,143.795,26.298,142.831,26.7376C142.429,26.9375,141.987,27.0973,141.585,27.2572C140.701,27.537,140.098,27.2174,139.857,26.3381C139.817,26.2581,139.817,26.1381,139.777,26.0582C139.295,23.6601,140.942,20.2227,143.193,19.2234C144.679,18.5439,146.327,18.1042,147.854,17.5847C148.055,17.5047,148.296,17.4648,148.537,17.4247C150.787,17.145,152.355,15.906,153.36,13.9075C153.681,13.228,154.043,12.5885,154.485,11.989C154.886,11.4694,155.409,10.9897,155.972,10.63C156.614,10.2303,157.176,10.3902,157.698,10.9897C158.261,11.6293,158.463,12.4287,158.181,13.228C157.98,13.7876,157.698,14.3472,157.459,14.9067C157.297,15.2265,157.176,15.5463,156.896,16.0659C157.86,15.906,158.623,15.7862,159.347,15.5862C164.932,14.0274,170.678,13.3479,176.385,12.3487C178.635,11.949,180.885,11.5893,182.934,10.5101C183.537,10.1904,184.301,10.1504,184.984,10.0305C185.466,9.95055,185.828,10.2303,186.149,10.63C186.873,11.6293,186.994,12.7084,186.471,13.8276C186.19,14.4271,185.788,15.0267,185.346,15.5062C183.979,16.9851,182.292,17.9844,180.322,18.504C175.982,19.5831,171.603,20.3027,167.183,21.022C163.486,21.6216,159.829,22.3011,156.131,22.9007C153.881,23.2604,152.274,24.4594,151.229,26.4978C150.024,28.8561,149.3,31.3341,149.622,34.0121C150.024,37.0897,151.953,38.8085,155.127,38.9684C159.065,39.1281,162.842,38.2889,166.459,36.81C169.473,35.5709,172.245,33.8922,174.736,31.7738C174.898,31.614,175.059,31.4541,175.26,31.3341C175.982,30.8546,176.827,31.0543,177.229,31.8537C177.63,32.6931,177.59,33.5325,177.268,34.4118C176.947,35.3312,176.385,36.0505,175.742,36.73C174.697,37.8492,173.452,38.7285,172.124,39.4879C168.267,41.7662,164.088,43.1651,159.788,44.1643C157.618,44.6839,155.448,45.0036,153.198,44.9238C151.711,44.8438,150.305,44.604,148.939,44.0044C146.287,42.8452,144.84,40.8069,144.438,38.0091C144.358,37.4095,144.277,36.81,144.197,36.0905C143.956,36.2904,143.755,36.4102,143.594,36.5301C141.505,38.1289,139.295,39.5679,136.924,40.727C134.995,41.6862,132.986,42.2458,130.816,42.2058C128.123,42.1259,126.436,40.6071,126.195,37.9291C125.994,36.0105,126.355,34.132,126.998,32.3334C127.119,32.0536,127.199,31.7339,127.32,31.4541C127.239,31.4141,127.159,31.3341,127.079,31.2942C126.878,31.534,126.717,31.8138,126.516,32.0536C124.909,33.8521,123.341,35.6508,121.694,37.3695C120.569,38.5287,119.363,39.6078,118.077,40.6071C116.992,41.4864,115.706,42.0459,114.26,42.2058C111.487,42.5256,109.558,41.0067,109.357,38.2488C109.317,37.7292,109.357,37.2096,109.357,36.6501C108.915,36.73,108.795,37.1297,108.554,37.3695C107.67,38.4087,106.906,39.5279,105.901,40.4472C104.656,41.6063,103.249,42.6455,101.843,43.6047C100.879,44.2842,99.7533,44.684,98.5478,44.684C96.6591,44.684,95.2928,43.7646,94.7303,41.966C94.4891,41.1666,94.449,40.3272,94.3686,39.4879C94.3284,39.208,94.3686,38.9283,94.3686,38.4087C93.9667,38.7684,93.7256,39.0083,93.4443,39.2481C92.1584,40.3672,90.9128,41.5663,89.5464,42.6055C88.3008,43.6047,86.8541,44.2842,85.2468,44.5639C82.3937,45.0436,79.9425,43.6847,78.8977,41.0467C78.1342,39.1682,78.0137,37.1697,78.1743,35.1712C78.3351,33.3726,78.6165,31.5739,79.4201,29.9352C79.4201,29.9352,79.5406,29.5755,79.5406,29.5755C79.5406,29.5356,79.5005,29.5356,79.4201,29.4156C79.1388,29.6154,78.8574,29.7753,78.5762,29.9753C75.5623,32.3733,72.5486,34.7715,69.575,37.2496C67.5255,39.0082,65.7976,41.0467,64.3509,43.3649C64.0697,43.8446,63.6276,44.2842,63.1454,44.5639C62.2212,45.1236,61.3372,44.684,61.0558,43.6448C60.8148,42.7254,60.8952,41.8461,61.1764,40.9668C61.498,39.9276,61.8997,38.8884,62.3417,37.8891C62.9445,36.4902,63.6679,35.1712,64.2705,33.7724C64.5519,33.1328,64.8332,32.4533,65.0341,31.7738C65.1144,31.4541,65.1547,31.0543,65.0743,30.7346C64.8733,29.3757,64.1903,28.936,62.9044,29.3757C62.2212,29.6154,61.5381,30.0152,60.9353,30.4149C56.7963,33.0928,53.3003,36.4502,50.3668,40.3673C49.8847,40.9668,49.5631,41.6862,49.081,42.3256C48.7194,42.8454,48.3175,43.365,47.8352,43.8046C47.3531,44.2443,46.7503,44.4042,46.1073,44.1243C45.4644,43.8846,45.3036,43.325,45.2232,42.7254C45.1027,41.4065,45.2232,40.1274,45.7456,38.9283C46.3887,37.4495,47.1119,36.0105,47.8755,34.6116C49.0006,32.5732,50.2463,30.6147,51.3715,28.5762C51.934,27.5771,52.4162,26.4978,52.8985,25.4586C53.2602,24.6593,53.3003,23.8199,53.2199,22.9806C53.0994,21.9813,52.5367,21.5417,51.5322,21.7414C49.8444,22.1013,48.1567,22.5009,46.5494,23.0606C43.7767,24.0198,41.0844,25.139,38.392,26.2581C37.6686,26.5378,36.9856,26.9775,36.3425,27.3772C35.6997,27.8169,35.6193,28.2965,35.9809,28.976C36.0613,29.1758,36.1818,29.3757,36.3024,29.5755C37.6686,31.534,37.8696,33.6924,37.2266,35.9307C36.1417,39.8076,33.6905,42.6855,30.2346,44.7639C27.7431,46.2427,25.0106,47.0421,22.1575,47.4818C20.7912,47.6815,19.3848,47.8815,17.9784,47.9614C16.8933,48.0414,15.7682,48.0014,14.6833,47.8016C12.4731,47.4419,11.1872,45.923,11.0265,43.6448C10.9461,42.3657,11.147,41.1267,11.5087,39.9276C12.232,37.4495,13.5581,35.3312,15.4869,33.6124C17.1747,32.0936,18.9428,30.6546,20.9119,29.5356C21.836,29.016,22.72,28.4165,23.7247,27.7769C23.4435,27.5771,23.2827,27.4172,23.0818,27.3372C22.3987,27.0574,21.7556,26.8176,21.0725,26.6178C16.572,25.2189,12.0713,23.8199,7.57063,22.3811C6.16418,21.9414,4.75775,21.3818,3.39149,20.7822C0.900056,19.7031,-0.144734,17.4648,0.016003,14.7069C0.257108,10.1904,2.50743,6.79297,6.28474,4.35485C9.09764,2.55622,12.232,1.47705,15.5272,0.797568C18.1391,0.237996,20.7912,-0.121727,23.4836,0.0381508C24.8499,0.118089,26.2162,0.277967,27.5422,0.637691C30.757,1.47705,31.8821,3.47551,31.1587,6.71303C30.9177,7.71227,30.5561,8.67153,29.9131,9.51089C28.9085,10.7899,27.6627,10.9897,26.3367,10.0705C26.1759,9.95055,26.0152,9.87062,25.8544,9.71073C24.2872,8.15193,22.3183,7.75224,20.1885,7.75224C16.9737,7.75224,13.9198,8.51165,10.9863,9.75071C9.49948,10.3902,8.09304,11.2296,6.68659,12.029C5.84272,12.5086,5.84272,12.9083,6.68659,13.4279C7.24916,13.7876,7.89211,14.0674,8.53506,14.3072C11.79,15.4263,15.0852,16.4655,18.34,17.5847C21.0725,18.504,23.7648,19.6231,26.2563,21.102C27.1806,21.6615,28.2254,22.0613,29.2702,22.4209C30.315,22.7806,31.3999,22.7407,32.4045,22.2611C34.0922,21.4617,35.8201,20.6223,37.4677,19.7831C41.1647,17.8645,44.942,16.1458,48.88,14.7868C50.8089,14.1074,52.7378,13.6677,54.8273,13.8675C57.3187,14.1074,58.9261,15.7461,59.0869,18.2243C59.2074,20.0229,58.7653,21.7414,58.1626,23.4202C58.0822,24.3795,57.8411,25.0189,57.5197,25.8184C57.5197,25.8184,57.5197,25.8184,57.5197,25.8184ZM19.5053,41.5263C21.1128,41.2864,23.0014,41.0867,24.8096,40.647C26.3768,40.2873,27.9039,39.7276,29.3907,39.0882C30.1943,38.7285,30.9578,38.1289,31.5606,37.5294C32.4446,36.69,32.4849,35.6508,31.8821,34.6116C31.5606,34.092,31.2391,33.5724,30.8775,33.0928C29.9934,32.0136,29.1094,31.7737,27.8638,32.3334C27.1403,32.6532,26.4171,33.0928,25.7339,33.5325C24.1266,34.6116,22.5192,35.7308,20.9119,36.81C19.8268,37.5693,18.7419,38.3688,17.6971,39.1682C17.3354,39.4479,17.014,39.7677,16.7326,40.0875C16.2102,40.687,16.3308,41.0467,17.1345,41.2466C17.8577,41.4064,18.5409,41.4464,19.5053,41.5263C19.5053,41.5263,19.5053,41.5263,19.5053,41.5263ZM103.33,26.5778C102.526,28.1366,101.682,29.6555,100.999,31.1742C100.276,32.813,99.9141,34.5317,99.8337,36.3303C99.7934,37.3296,100.677,37.9291,101.602,37.5294C102.044,37.3296,102.486,36.9699,102.807,36.6101C103.33,35.9706,103.812,35.3312,104.133,34.5717C105.178,32.2534,106.143,29.8953,107.107,27.537C107.308,27.0574,107.388,26.5379,107.428,26.0183C107.469,25.5386,107.228,25.3387,106.786,25.4986C106.263,25.6586,105.741,25.8584,105.299,26.1782C104.656,26.6577,104.053,26.9375,103.33,26.5778C103.33,26.5778,103.33,26.5778,103.33,26.5778Z" fill="#FF4054" fill-opacity="1"/></g></g></svg>